# xmcd CD database file
#
# Track frame offsets:
#	150
#	20613
#	39019
#	59388
#	78108
#	100303
#	127234
#	144839
#	164286
#	185715
#	201919
#	225513
#	243956
#	259600
#	281466
#
# Disc length: 4122 seconds
#
# Revision: 11
# Processed by: cddbd v1.5.1PL0 Copyright (c) Steve Scherf et al.
# Submitted via: CDex 1.50beta8
#
DISCID=c510180f
DTITLE=KICK THE CAN CREW - BEST ALBUM 2001-2003
DYEAR=2003
DGENRE=Hip-Hop
TTITLE0=STEP IN THE DAY
TTITLE1=super originaru
TTITLE2=itunarouba
TTITLE3=kannkeri01
TTITLE4=LIFELINE
TTITLE5=kurisumasuibu Rap
TTITLE6=marusye
TTITLE7=ONE WAY
TTITLE8=VITALIZER
TTITLE9=sayonara sayonara
TTITLE10=annbaransu
TTITLE11=chikyuuburu-su-337-
TTITLE12=DJ DJ [for RADIO]
TTITLE13=TORIIIIIICO! feat. CASSETE VISION
TTITLE14=magic number
EXTD=YEAR: 2003
EXTT0=
EXTT1=
EXTT2=
EXTT3=
EXTT4=
EXTT5=
EXTT6=
EXTT7=
EXTT8=
EXTT9=
EXTT10=
EXTT11=
EXTT12=
EXTT13=
EXTT14=
PLAYORDER=
